# xmcd
#
# Track frame offsets:
#	150
#	15348
#	36021
#	50619
#	66642
#	84915
#	101763
#	119436
#	134259
#	151857
#	166380
#	179103
#	196776
#	211599
#	227397
#	241470
#	255543
#
# Disc length: 3601 seconds
#
# Revision: 0
# Processed by: cddbd v1.5.2PL0 Copyright (c) Steve Scherf et al.
# Submitted via: audiograbber 1.83.01
#
DISCID=dd0e0f11
DTITLE=Unknown Artist - Top Hits RC 105
DYEAR=2007
DGENRE=Country
TTITLE0=01 - Our Song (Single Mix) - Taylor Swift
TTITLE1=02 - Stay - Sugarland
TTITLE2=03 - Ready, Set Don't Go (Radio Edit) - Billy Ray Cyrus and Miley Cyrus
TTITLE3=04 - Watching Airplanes - Gary Allan
TTITLE4=05 - Winner At A Losing Game - Rascal Flatts
TTITLE5=06 - Nothin' Better To Do - LeAnn Rimes
TTITLE6=07 - Stealing Cinderella - Chuck Wicks
TTITLE7=08 - Heaven, Heartache, And The Power Of Love (Radio Edit) - Trisha Yea
TTITLE7=rwood
TTITLE8=09 - International Harvester - Craig Morgan
TTITLE9=10 - Things That Never Cross A Man's Mind - Kellie Pickler
TTITLE10=11 - Rollin' With The Flow - Mark Chesnutt
TTITLE11=12 - I'm With The Band - Little Big Town
TTITLE12=13 - Laughed Until We Cried - Jason Aldean
TTITLE13=14 - Red Umbrella (Radio Edit) - Faith Hill
TTITLE14=15 - It's Good To Be Us - Bucky Covington
TTITLE15=16 - Takin Off This Pain - Ashton Shepherd 
TTITLE16=17 - Something About A Woman - Jake Owen
EXTD=
EXTT0=
EXTT1=
EXTT2=
EXTT3=
EXTT4=
EXTT5=
EXTT6=
EXTT7=
EXTT8=
EXTT9=
EXTT10=
EXTT11=
EXTT12=
EXTT13=
EXTT14=
EXTT15=
EXTT16=
PLAYORDER=
